<?xml version="1.0" encoding="utf-8"?>
<!-- Generator: Adobe Illustrator 23.0.0, SVG Export Plug-In . SVG Version: 6.00 Build 0)  -->
<svg version="1.1" id="Слой_1" xmlns="http://www.w3.org/2000/svg" xmlns:xlink="http://www.w3.org/1999/xlink" x="0px" y="0px"
	 viewBox="0 0 469.08 187.04" style="enable-background:new 0 0 469.08 187.04;" xml:space="preserve">
<style type="text/css">
	.st0{fill:#EF141E;}
	.st1{fill:#FEFEFE;}
	.st2{fill:#F8989C;}
	.st3{fill:#F9B7BA;}
	.st4{fill:#F67E83;}
	.st5{fill:#EF101A;}
	.st6{fill:#F46066;}
	.st7{fill:#F1373F;}
	.st8{fill:#F57076;}
	.st9{fill:#F9AEB2;}
	.st10{fill:#F5757B;}
</style>
<g>
	<path class="st0" d="M234.15,187.6c-76.55,0-153.11-0.03-229.66,0.09c-3.61,0.01-4.39-0.96-4.38-4.45
		C0.22,123.62,0.23,63.99,0.1,4.36C0.09,0.69,1.16,0.01,4.58,0.01C157.94,0.1,311.31,0.1,464.68,0c3.61,0,4.39,0.96,4.38,4.45
		c-0.11,59.63-0.12,119.26,0.01,178.89c0.01,3.67-1.06,4.35-4.48,4.35C387.78,187.58,310.97,187.6,234.15,187.6z"/>
	<path class="st1" d="M114.23,153.17c2.48-16.71,4.92-33.42,7.43-50.12c4.04-26.85,8.15-53.69,12.14-80.55
		c1.11-7.46,0.95-7.49,8.43-7.49c9.11,0,18.22,0.12,27.33-0.07c2.69-0.06,3.57,0.95,3.93,3.38c2.87,19.41,5.82,38.8,8.73,58.2
		c3.45,23,6.89,46,10.34,69c0.07,0.45,0.33,0.88,0.73,1.86c1.05-1.71,0.71-3.1,0.71-4.37c0.04-41.13,0.11-82.26-0.01-123.39
		c-0.01-3.76,0.86-4.88,4.68-4.7c7.14,0.33,14.32,0.26,21.47,0.06c18.5-0.51,32.7,6.96,42.64,22.55c1.28-0.01,1.3-0.07,0.84-2.43
		c-0.68-5.81-1.25-11.63-2.11-17.41c-0.32-2.15,0.19-2.74,2.3-2.72c7.94,0.08,15.88,0.16,23.81-0.03c2.75-0.07,2.86,1.58,3.1,3.39
		c1.84,13.39,3.68,26.77,5.48,40.16c2.22,16.48,4.42,32.96,6.71,50.1c1.81-2.96,1.48-5.85,1.85-8.46
		c3.83-27.28,7.54-54.57,11.19-81.87c0.35-2.63,1.41-3.32,3.99-3.31c24.47,0.1,48.93,0.11,73.4-0.01c2.91-0.01,3.79,0.72,3.7,3.67
		c-0.22,7.28-0.21,14.58,0,21.86c0.08,2.85-0.93,3.47-3.56,3.4c-6.37-0.17-12.75,0.04-19.13-0.1c-2.31-0.05-3.17,0.49-3.13,3
		c0.14,9.89,0.12,19.78,0.01,29.67c-0.02,2.24,0.7,2.89,2.88,2.85c6.5-0.12,13.01,0.05,19.52-0.09c2.42-0.05,3.47,0.46,3.4,3.19
		c-0.19,7.54-0.16,15.1-0.01,22.64c0.05,2.44-0.74,3.1-3.1,3.05c-6.37-0.14-12.76,0.06-19.13-0.1c-2.6-0.07-3.64,0.47-3.58,3.37
		c0.21,10.8,0.15,21.6,0.19,32.4c5.64,1.13,11.34,0.37,17.01,0.47c8.28,0.15,8.28,0.04,8.28,8.39c0,5.46-0.09,10.92,0.04,16.38
		c0.06,2.4-0.47,3.45-3.2,3.43c-15.86-0.12-31.72-0.14-47.59,0.01c-3.16,0.03-3.17-1.54-3.17-3.84c0.04-26.78,0.03-53.57,0.03-80.35
		c0-16.25,0.03-32.5-0.06-48.76c-0.01-1.07,1.16-2.79-1.01-3.31c-2.98,19-5.93,38-8.95,56.99c-4.03,25.28-8.16,50.53-12.09,75.83
		c-0.42,2.73-1.13,3.76-4.03,3.71c-8.72-0.17-17.44-0.15-26.16,0.07c-2.94,0.07-3.93-0.79-4.42-3.75
		c-4.85-29.48-9.89-58.93-14.88-88.4c-0.38-0.42-0.59-0.91-0.64-1.47c0.09-1.13-0.35-2.23-0.19-4.07c-0.24,1.96,0.35,3.21,0.1,4.46
		c-0.35,1.11-0.21,2.3-0.64,3.39c-2.38,10.68-7.03,20.11-15.41,27.39c-1.6,1.39-0.92,2.7-0.48,4.2
		c5.33,18.06,10.54,36.17,16.05,54.18c1.1,3.6,0.19,4.13-3.12,4.03c-6.76-0.2-13.54-0.19-20.31,0.01c-2.68,0.08-3.79-0.65-4.49-3.39
		c-3.87-15.23-8-30.4-12.01-45.59c-0.47-1.78-0.47-3.73-3.32-2.99c-2.22,0.58-4.24,0.38-4.18,3.98c0.27,14.71,0.02,29.42,0.19,44.13
		c0.04,3.14-0.88,3.89-3.93,3.86c-15.75-0.16-31.51-0.13-47.26-0.06c-2.35,0.01-3.41-0.46-3.68-3.1c-0.64-6.2-1.82-12.34-2.54-18.53
		c-0.26-2.22-1.16-2.72-3.21-2.68c-5.47,0.12-10.94,0.19-16.4-0.02c-2.65-0.1-3.18,0.95-3.46,3.32c-0.82,6.83-1.96,13.63-2.97,20.44
		c-6.61,0.63-13.24,0.2-19.86,0.26c-10.54,0.08-21.08-0.08-31.61,0.09c-2.93,0.05-3.74-0.8-3.72-3.72
		c0.12-20.69,0.08-41.37,0.01-62.06c0-1.08,1.14-2.8-1.02-3.32c-3.71,22.15-7.44,44.29-11.1,66.44c-0.37,2.25-1.36,3.12-3.63,2.86
		c-1.67-0.19-3.38-0.04-5.07-0.04c-7.23,0-7.15-0.01-8.37-7.31c-3.43-20.48-6.95-40.95-10.44-61.42c-0.09-0.51-0.33-0.99-0.49-1.48
		c-0.95-0.95-0.07-2.27-0.63-3.3c0.22,1.14,0.35,2.29-0.13,3.41c-0.01,21.86-0.14,43.73,0.06,65.59c0.04,3.92-1.13,4.76-4.78,4.59
		c-6.62-0.3-13.28-0.33-19.9,0.01c-3.66,0.19-4.2-1.16-4.19-4.42c0.1-49.71,0.1-99.43,0-149.14c-0.01-3.11,0.59-4.28,4-4.19
		c9.62,0.24,19.26,0.2,28.89,0.01c2.76-0.05,3.82,0.7,4.24,3.48c3.12,20.68,6.39,41.34,9.62,62c0.65,4.18,1.34,8.35,2.02,12.52
		c0.33,0.01,0.65,0.03,0.98,0.04c1.08-6.52,2.16-13.03,3.22-19.55c3.15-19.23,6.3-38.45,9.45-57.68c4.1-0.92,8.26-0.32,12.39-0.39
		c6.51-0.12,13.01-0.04,19.52-0.03c4.29,0.01,4.31,0.01,4.31,4.18c0.01,23.69,0,47.38,0,71.06c0,19.65,0,39.31,0,58.96
		c0,1.43-0.27,2.94,0.36,4.23C113.71,154.34,113.87,153.3,114.23,153.17z"/>
	<path class="st1" d="M431.48,143.87c6.63,0.07,13.26,0.23,19.89,0.15c2.37-0.03,3.16,0.68,3.12,3.09
		c-0.13,7.55-0.12,15.1-0.01,22.64c0.03,2.28-0.81,2.85-2.96,2.84c-15.62-0.07-31.24-0.13-46.85,0.03
		c-3.16,0.03-2.86-1.67-2.86-3.68c0.01-29.28,0.01-58.57,0.01-87.85c0-20.82,0.06-41.65-0.07-62.47c-0.02-2.91,0.71-3.79,3.67-3.69
		c6.89,0.23,13.8,0.25,20.69-0.01c3.27-0.12,4.09,0.86,4.08,4.08c-0.11,40.08-0.08,80.17-0.04,120.25c0,1.47-0.63,3.09,0.56,4.44
		C431.03,143.44,431.29,143.51,431.48,143.87z"/>
	<path class="st2" d="M341.74,36.16c-0.41-1.37,0.17-2.41,1.51-3.33c0,1.62,0,3.24,0,4.87c0,43.3,0.04,86.6-0.08,129.91
		c-0.01,3.5,0.8,4.61,4.46,4.56c14.95-0.22,29.91-0.16,44.86-0.03c2.95,0.03,4.15-0.63,4.02-3.86c-0.25-6.62-0.26-13.27,0-19.89
		c0.13-3.25-1.08-3.94-4.03-3.84c-5.85,0.2-11.7,0.1-17.55,0.03c-1.2-0.01-2.64,0.63-3.54-0.83c7.41,0.03,14.83,0.15,22.24,0.03
		c2.62-0.04,3.69,0.58,3.62,3.45c-0.19,7.41-0.14,14.83-0.02,22.24c0.04,2.42-0.51,3.46-3.21,3.44
		c-16.13-0.11-32.26-0.15-48.39,0.02c-3.6,0.04-3.17-2.06-3.17-4.27c0.01-29.79,0-59.58,0-89.36c0-12.75,0.03-25.5-0.02-38.24
		C342.46,39.41,342.96,37.64,341.74,36.16z"/>
	<path class="st3" d="M114.23,153.17c0.3,1.97-0.11,3.78-1.62,5.46c0-2,0-4.01,0-6.01c0-44.21-0.03-88.43,0.08-132.64
		c0.01-3.32-0.66-4.51-4.24-4.41c-10.53,0.28-21.06,0.15-31.6,0.19c0.79-1.63,2.29-0.86,3.43-0.86c9.77-0.07,19.54,0.11,29.3-0.12
		c3.27-0.08,3.84,1.09,3.83,4.02c-0.09,43.1-0.08,86.2-0.03,129.3C113.39,149.78,112.5,151.73,114.23,153.17z"/>
	<path class="st4" d="M83.12,103.32c-0.34-1.35,0.08-2.45,1.52-4.2c0,2.32,0,3.8,0,5.29c0,21.34,0.02,42.68-0.04,64.02
		c-0.01,2.36,0.09,3.82,3.21,3.79c17.17-0.17,34.35-0.12,51.52-0.14c-1.08,1.47-2.64,0.76-3.96,0.77
		c-15.73,0.06-31.46-0.06-47.19,0.11c-3.4,0.04-4.43-0.83-4.4-4.32c0.17-20.15,0.1-40.3,0.06-60.45
		C83.83,106.56,84.37,104.79,83.12,103.32z"/>
	<path class="st5" d="M431.48,143.87c-0.26-0.06-0.52-0.11-0.78-0.17c0-42.62,0-85.25,0-127.87c0.26,0,0.52,0,0.78,0
		C431.48,58.51,431.48,101.19,431.48,143.87z"/>
	<path class="st6" d="M263.62,35.11c0.88,1.23,0.68,2.62,0.76,4.14c-1.22-0.14-1.45-0.89-1.61-1.71
		C263.77,36.97,263.23,35.88,263.62,35.11z"/>
	<path class="st7" d="M269.84,82.91c0.01-1.26,0.02-2.52,0.04-3.78c0.43-0.6,0.89-0.58,1.37-0.07c-0.01,0.51-0.03,1.02-0.04,1.54
		C270.75,81.37,270.3,82.14,269.84,82.91z"/>
	<path class="st8" d="M43.25,102.49c-0.36-1.14-0.23-2.25,0.13-3.52c0.89,1.16,0.81,2.28,0.63,3.41
		C43.77,102.46,43.51,102.49,43.25,102.49z"/>
	<path class="st0" d="M222.7,68.4c0-7.4,0.09-14.8-0.05-22.2c-0.05-2.68,0.66-3.33,3.35-2.72c8.77,2.01,14.12,8.47,15.43,19.61
		c0.83,7.06,0.23,14.03-3.28,20.42c-2.73,4.98-6.69,8.48-12.35,9.96c-2.46,0.64-3.2,0.05-3.16-2.5
		C222.78,83.46,222.7,75.93,222.7,68.4z"/>
	<path class="st0" d="M154.79,61.86c2.28,18.93,4.53,37.87,6.88,56.8c0.59,4.78,0.73,4.76-3.98,4.77c-2.47,0-4.97-0.27-7.4,0.06
		c-3.87,0.53-4.14-1.2-3.74-4.41c2.39-19.31,4.6-38.65,6.88-57.98C154.29,60.61,154.47,61.37,154.79,61.86z"/>
	<path class="st9" d="M271.25,79.07c-0.46,0.02-0.91,0.04-1.37,0.07c0-1.37,0-2.75,0-4.9C270.8,76.23,271.54,77.48,271.25,79.07z"/>
	<path class="st10" d="M154.79,61.86c-0.46-0.25-0.91-0.51-1.37-0.76c-0.14-0.96-0.46-1.95,0.48-2.81
		C155.1,59.32,154.95,60.59,154.79,61.86z"/>
</g>
</svg>
